<svg width="22" height="17" viewBox="0 0 22 17" fill="none" xmlns="http://www.w3.org/2000/svg">
<path fill-rule="evenodd" clip-rule="evenodd" d="M7 8.5C7 6.29 8.79 4.5 11 4.5C13.21 4.5 15 6.29 15 8.5C15 10.71 13.21 12.5 11 12.5C8.79 12.5 7 10.71 7 8.5ZM9 8.5C9 9.6 9.9 10.5 11 10.5C12.1 10.5 13 9.6 13 8.5C13 7.4 12.1 6.5 11 6.5C9.9 6.5 9 7.4 9 8.5Z" fill="black"/>
<path fill-rule="evenodd" clip-rule="evenodd" d="M21.87 8L21.88 8.03C22.04 8.32 22.04 8.68 21.88 8.97L21.87 8.98V9C21.86 9.02 21.85 9.04 21.83 9.07C21.8063 9.11748 21.77 9.17748 21.7262 9.25C21.7146 9.26913 21.7025 9.28913 21.69 9.31C21.56 9.52 21.38 9.81 21.15 10.16C20.68 10.85 19.98 11.77 19.07 12.7C17.27 14.54 14.53 16.5 11 16.5C7.47 16.5 4.73 14.54 2.93 12.7C2.02 11.77 1.32 10.85 0.85 10.16C0.62 9.81 0.44 9.52 0.31 9.31C0.297476 9.28913 0.285388 9.26913 0.273827 9.25C0.229999 9.17747 0.193738 9.11748 0.17 9.07C0.15 9.04 0.14 9.02 0.13 9L0.12 8.97C0.04 8.82 0 8.66 0 8.5C0 8.34 0.04 8.18 0.12 8.03L0.13 8.02V8C0.14 7.98 0.15 7.96 0.17 7.93C0.193739 7.88252 0.230002 7.82252 0.273833 7.74999C0.285393 7.73087 0.297479 7.71087 0.31 7.69C0.44 7.48 0.62 7.19 0.85 6.84C1.32 6.15 2.02 5.23 2.93 4.3C4.73 2.46 7.47 0.5 11 0.5C14.53 0.5 17.27 2.46 19.07 4.3C19.98 5.23 20.68 6.15 21.15 6.84C21.38 7.19 21.56 7.48 21.69 7.69C21.7025 7.71087 21.7146 7.73087 21.7262 7.74999C21.77 7.82252 21.8063 7.88252 21.83 7.93C21.85 7.96 21.86 7.98 21.87 8ZM17.64 11.3C18.45 10.48 19.07 9.65 19.49 9.03C19.63 8.83 19.75 8.65 19.84 8.5C19.75 8.35 19.63 8.17 19.49 7.97C19.07 7.35 18.45 6.52 17.64 5.7C16.01 4.04 13.76 2.5 11 2.5C8.24 2.5 5.99 4.04 4.36 5.7C3.55 6.52 2.93 7.35 2.51 7.97C2.37 8.17 2.25 8.35 2.16 8.5C2.25 8.65 2.37 8.83 2.51 9.03C2.93 9.65 3.55 10.48 4.36 11.3C5.99 12.96 8.24 14.5 11 14.5C13.76 14.5 16.01 12.96 17.64 11.3Z" fill="black"/>
</svg>
