<svg width="192" height="192" viewBox="0 0 192 192" fill="none" xmlns="http://www.w3.org/2000/svg">
<g clip-path="url(#clip0_184_502)">
<circle cx="96" cy="96" r="96" fill="#F7E5B5"/>
<path d="M96 164.051C111.862 164.051 126.27 162.001 136.755 158.654C141.991 156.984 146.316 154.968 149.358 152.673C152.379 150.393 154.329 147.68 154.329 144.608C154.329 141.536 152.379 138.823 149.358 136.543C146.316 134.247 141.991 132.232 136.755 130.561C126.27 127.215 111.862 125.165 96 125.165C80.1385 125.165 65.7296 127.215 55.2449 130.561C50.0096 132.232 45.6846 134.247 42.6425 136.543C39.6206 138.823 37.6709 141.536 37.6709 144.608C37.6709 147.68 39.6206 150.393 42.6425 152.673C45.6846 154.968 50.0096 156.984 55.2449 158.654C65.7296 162.001 80.1385 164.051 96 164.051Z" fill="#E7F075" stroke="black" stroke-width="2.43038" stroke-linejoin="round"/>
<path d="M96.9881 146.706C97.4565 147.149 98.1891 147.149 98.6576 146.706C121.518 125.099 132.097 106.675 136.948 93.5792C139.372 87.0336 140.363 81.8293 140.743 78.2378C140.933 76.4426 140.971 75.0516 140.96 74.0988C140.955 73.6224 140.937 73.2557 140.92 73.0028C140.912 72.8764 140.903 72.7784 140.897 72.7094C140.896 72.6955 140.894 72.6827 140.893 72.6711C140.879 57.0075 135.541 45.5774 127.416 38.182C119.298 30.7929 108.507 27.5323 97.7709 27.9918C76.3315 28.9094 54.7857 44.7163 54.7525 72.671C54.7514 72.6826 54.7501 72.6954 54.7488 72.7094C54.7423 72.7784 54.734 72.8764 54.7255 73.0028C54.7085 73.2557 54.6908 73.6224 54.6853 74.0988C54.6743 75.0516 54.7122 76.4426 54.9025 78.2378C55.2831 81.8293 56.2732 87.0336 58.698 93.5792C63.5492 106.675 74.1276 125.099 96.9881 146.706Z" fill="#D8EFF3" stroke="black" stroke-width="2.43038" stroke-linejoin="round"/>
<path d="M111.708 92.361C110.928 92.2837 110.207 92.9021 110.134 93.7524C109.47 100.895 103.914 106.275 97.2021 106.275C90.5773 106.275 85.0349 100.972 84.2988 93.9379C84.2122 93.0876 83.4905 92.4847 82.6967 92.5775C81.9028 92.6702 81.3399 93.4432 81.4265 94.2781C82.3358 102.889 89.1051 109.367 97.2021 109.367C105.4 109.367 112.198 102.781 113.007 94.0616C113.079 93.2113 112.501 92.4538 111.708 92.361Z" fill="#00112C"/>
<circle cx="83.2405" cy="73.5188" r="4.25316" transform="rotate(-180 83.2405 73.5188)" fill="black"/>
<circle cx="111.19" cy="73.5188" r="4.25316" transform="rotate(-180 111.19 73.5188)" fill="black"/>
</g>
<defs>
<clipPath id="clip0_184_502">
<rect width="192" height="192" fill="white"/>
</clipPath>
</defs>
</svg>
